<mxfile host="app.diagrams.net" agent="Mozilla/5.0 (Windows NT 10.0; Win64; x64) AppleWebKit/537.36 (KHTML, like Gecko) Chrome/133.0.0.0 Safari/537.36" version="26.0.16">
  <diagram name="Page-1" id="i7ImQxPpGs-lb5HzgOeP">
    <mxGraphModel dx="1301" dy="903" grid="1" gridSize="10" guides="1" tooltips="1" connect="1" arrows="1" fold="1" page="1" pageScale="1" pageWidth="827" pageHeight="1169" math="0" shadow="0">
      <root>
        <mxCell id="0" />
        <mxCell id="1" parent="0" />
        <mxCell id="gLA9Vmcd5SNokh0GjbCU-1" value="LIVRE" style="shape=table;startSize=30;container=1;collapsible=0;childLayout=tableLayout;" parent="1" vertex="1">
          <mxGeometry x="250" y="1360" width="120" height="378" as="geometry" />
        </mxCell>
        <mxCell id="gLA9Vmcd5SNokh0GjbCU-2" value="" style="shape=tableRow;horizontal=0;startSize=0;swimlaneHead=0;swimlaneBody=0;strokeColor=inherit;top=0;left=0;bottom=0;right=0;collapsible=0;dropTarget=0;fillColor=none;points=[[0,0.5],[1,0.5]];portConstraint=eastwest;" parent="gLA9Vmcd5SNokh0GjbCU-1" vertex="1">
          <mxGeometry y="30" width="120" height="58" as="geometry" />
        </mxCell>
        <mxCell id="gLA9Vmcd5SNokh0GjbCU-3" value="ID_Livre [PK]" style="shape=partialRectangle;html=1;whiteSpace=wrap;connectable=0;strokeColor=inherit;overflow=hidden;fillColor=#00FF00;top=0;left=0;bottom=0;right=0;pointerEvents=1;" parent="gLA9Vmcd5SNokh0GjbCU-2" vertex="1">
          <mxGeometry width="120" height="58" as="geometry">
            <mxRectangle width="120" height="58" as="alternateBounds" />
          </mxGeometry>
        </mxCell>
        <mxCell id="gLA9Vmcd5SNokh0GjbCU-4" value="" style="shape=tableRow;horizontal=0;startSize=0;swimlaneHead=0;swimlaneBody=0;strokeColor=inherit;top=0;left=0;bottom=0;right=0;collapsible=0;dropTarget=0;fillColor=none;points=[[0,0.5],[1,0.5]];portConstraint=eastwest;" parent="gLA9Vmcd5SNokh0GjbCU-1" vertex="1">
          <mxGeometry y="88" width="120" height="58" as="geometry" />
        </mxCell>
        <mxCell id="gLA9Vmcd5SNokh0GjbCU-5" value="Titre_Livre" style="shape=partialRectangle;html=1;whiteSpace=wrap;connectable=0;strokeColor=inherit;overflow=hidden;fillColor=none;top=0;left=0;bottom=0;right=0;pointerEvents=1;" parent="gLA9Vmcd5SNokh0GjbCU-4" vertex="1">
          <mxGeometry width="120" height="58" as="geometry">
            <mxRectangle width="120" height="58" as="alternateBounds" />
          </mxGeometry>
        </mxCell>
        <mxCell id="gLA9Vmcd5SNokh0GjbCU-6" value="" style="shape=tableRow;horizontal=0;startSize=0;swimlaneHead=0;swimlaneBody=0;strokeColor=inherit;top=0;left=0;bottom=0;right=0;collapsible=0;dropTarget=0;fillColor=none;points=[[0,0.5],[1,0.5]];portConstraint=eastwest;" parent="gLA9Vmcd5SNokh0GjbCU-1" vertex="1">
          <mxGeometry y="146" width="120" height="58" as="geometry" />
        </mxCell>
        <mxCell id="gLA9Vmcd5SNokh0GjbCU-7" value="Année_Publication" style="shape=partialRectangle;html=1;whiteSpace=wrap;connectable=0;strokeColor=inherit;overflow=hidden;fillColor=none;top=0;left=0;bottom=0;right=0;pointerEvents=1;" parent="gLA9Vmcd5SNokh0GjbCU-6" vertex="1">
          <mxGeometry width="120" height="58" as="geometry">
            <mxRectangle width="120" height="58" as="alternateBounds" />
          </mxGeometry>
        </mxCell>
        <mxCell id="gLA9Vmcd5SNokh0GjbCU-8" value="" style="shape=tableRow;horizontal=0;startSize=0;swimlaneHead=0;swimlaneBody=0;strokeColor=inherit;top=0;left=0;bottom=0;right=0;collapsible=0;dropTarget=0;fillColor=none;points=[[0,0.5],[1,0.5]];portConstraint=eastwest;" parent="gLA9Vmcd5SNokh0GjbCU-1" vertex="1">
          <mxGeometry y="204" width="120" height="58" as="geometry" />
        </mxCell>
        <mxCell id="gLA9Vmcd5SNokh0GjbCU-9" value="Nb_Pages" style="shape=partialRectangle;html=1;whiteSpace=wrap;connectable=0;strokeColor=inherit;overflow=hidden;fillColor=none;top=0;left=0;bottom=0;right=0;pointerEvents=1;" parent="gLA9Vmcd5SNokh0GjbCU-8" vertex="1">
          <mxGeometry width="120" height="58" as="geometry">
            <mxRectangle width="120" height="58" as="alternateBounds" />
          </mxGeometry>
        </mxCell>
        <mxCell id="gLA9Vmcd5SNokh0GjbCU-10" value="" style="shape=tableRow;horizontal=0;startSize=0;swimlaneHead=0;swimlaneBody=0;strokeColor=inherit;top=0;left=0;bottom=0;right=0;collapsible=0;dropTarget=0;fillColor=none;points=[[0,0.5],[1,0.5]];portConstraint=eastwest;" parent="gLA9Vmcd5SNokh0GjbCU-1" vertex="1">
          <mxGeometry y="262" width="120" height="58" as="geometry" />
        </mxCell>
        <mxCell id="gLA9Vmcd5SNokh0GjbCU-11" value="Editeur" style="shape=partialRectangle;html=1;whiteSpace=wrap;connectable=0;strokeColor=inherit;overflow=hidden;fillColor=none;top=0;left=0;bottom=0;right=0;pointerEvents=1;" parent="gLA9Vmcd5SNokh0GjbCU-10" vertex="1">
          <mxGeometry width="120" height="58" as="geometry">
            <mxRectangle width="120" height="58" as="alternateBounds" />
          </mxGeometry>
        </mxCell>
        <mxCell id="gLA9Vmcd5SNokh0GjbCU-12" style="shape=tableRow;horizontal=0;startSize=0;swimlaneHead=0;swimlaneBody=0;strokeColor=inherit;top=0;left=0;bottom=0;right=0;collapsible=0;dropTarget=0;fillColor=none;points=[[0,0.5],[1,0.5]];portConstraint=eastwest;" parent="gLA9Vmcd5SNokh0GjbCU-1" vertex="1">
          <mxGeometry y="320" width="120" height="58" as="geometry" />
        </mxCell>
        <mxCell id="gLA9Vmcd5SNokh0GjbCU-13" value="&lt;font style=&quot;color: rgb(51, 51, 255);&quot;&gt;Categorie_id [FK]&lt;/font&gt;" style="shape=partialRectangle;html=1;whiteSpace=wrap;connectable=0;strokeColor=inherit;overflow=hidden;fillColor=none;top=0;left=0;bottom=0;right=0;pointerEvents=1;" parent="gLA9Vmcd5SNokh0GjbCU-12" vertex="1">
          <mxGeometry width="120" height="58" as="geometry">
            <mxRectangle width="120" height="58" as="alternateBounds" />
          </mxGeometry>
        </mxCell>
        <mxCell id="gLA9Vmcd5SNokh0GjbCU-14" value="MEMBRE" style="shape=table;startSize=30;container=1;collapsible=0;childLayout=tableLayout;" parent="1" vertex="1">
          <mxGeometry x="790" y="960" width="140" height="320" as="geometry" />
        </mxCell>
        <mxCell id="gLA9Vmcd5SNokh0GjbCU-15" value="" style="shape=tableRow;horizontal=0;startSize=0;swimlaneHead=0;swimlaneBody=0;strokeColor=inherit;top=0;left=0;bottom=0;right=0;collapsible=0;dropTarget=0;fillColor=none;points=[[0,0.5],[1,0.5]];portConstraint=eastwest;" parent="gLA9Vmcd5SNokh0GjbCU-14" vertex="1">
          <mxGeometry y="30" width="140" height="48" as="geometry" />
        </mxCell>
        <mxCell id="gLA9Vmcd5SNokh0GjbCU-16" value="Id_Membre [PK]" style="shape=partialRectangle;html=1;whiteSpace=wrap;connectable=0;strokeColor=inherit;overflow=hidden;fillColor=#33FFFF;top=0;left=0;bottom=0;right=0;pointerEvents=1;" parent="gLA9Vmcd5SNokh0GjbCU-15" vertex="1">
          <mxGeometry width="140" height="48" as="geometry">
            <mxRectangle width="140" height="48" as="alternateBounds" />
          </mxGeometry>
        </mxCell>
        <mxCell id="gLA9Vmcd5SNokh0GjbCU-17" value="" style="shape=tableRow;horizontal=0;startSize=0;swimlaneHead=0;swimlaneBody=0;strokeColor=inherit;top=0;left=0;bottom=0;right=0;collapsible=0;dropTarget=0;fillColor=none;points=[[0,0.5],[1,0.5]];portConstraint=eastwest;" parent="gLA9Vmcd5SNokh0GjbCU-14" vertex="1">
          <mxGeometry y="78" width="140" height="49" as="geometry" />
        </mxCell>
        <mxCell id="gLA9Vmcd5SNokh0GjbCU-18" value="Nom_Membre" style="shape=partialRectangle;html=1;whiteSpace=wrap;connectable=0;strokeColor=inherit;overflow=hidden;fillColor=none;top=0;left=0;bottom=0;right=0;pointerEvents=1;" parent="gLA9Vmcd5SNokh0GjbCU-17" vertex="1">
          <mxGeometry width="140" height="49" as="geometry">
            <mxRectangle width="140" height="49" as="alternateBounds" />
          </mxGeometry>
        </mxCell>
        <mxCell id="gLA9Vmcd5SNokh0GjbCU-19" value="" style="shape=tableRow;horizontal=0;startSize=0;swimlaneHead=0;swimlaneBody=0;strokeColor=inherit;top=0;left=0;bottom=0;right=0;collapsible=0;dropTarget=0;fillColor=none;points=[[0,0.5],[1,0.5]];portConstraint=eastwest;" parent="gLA9Vmcd5SNokh0GjbCU-14" vertex="1">
          <mxGeometry y="127" width="140" height="48" as="geometry" />
        </mxCell>
        <mxCell id="gLA9Vmcd5SNokh0GjbCU-20" value="Prénom_Membre" style="shape=partialRectangle;html=1;whiteSpace=wrap;connectable=0;strokeColor=inherit;overflow=hidden;fillColor=none;top=0;left=0;bottom=0;right=0;pointerEvents=1;" parent="gLA9Vmcd5SNokh0GjbCU-19" vertex="1">
          <mxGeometry width="140" height="48" as="geometry">
            <mxRectangle width="140" height="48" as="alternateBounds" />
          </mxGeometry>
        </mxCell>
        <mxCell id="gLA9Vmcd5SNokh0GjbCU-21" value="" style="shape=tableRow;horizontal=0;startSize=0;swimlaneHead=0;swimlaneBody=0;strokeColor=inherit;top=0;left=0;bottom=0;right=0;collapsible=0;dropTarget=0;fillColor=none;points=[[0,0.5],[1,0.5]];portConstraint=eastwest;" parent="gLA9Vmcd5SNokh0GjbCU-14" vertex="1">
          <mxGeometry y="175" width="140" height="48" as="geometry" />
        </mxCell>
        <mxCell id="gLA9Vmcd5SNokh0GjbCU-22" value="Adresse_Membre" style="shape=partialRectangle;html=1;whiteSpace=wrap;connectable=0;strokeColor=inherit;overflow=hidden;fillColor=none;top=0;left=0;bottom=0;right=0;pointerEvents=1;" parent="gLA9Vmcd5SNokh0GjbCU-21" vertex="1">
          <mxGeometry width="140" height="48" as="geometry">
            <mxRectangle width="140" height="48" as="alternateBounds" />
          </mxGeometry>
        </mxCell>
        <mxCell id="gLA9Vmcd5SNokh0GjbCU-23" value="" style="shape=tableRow;horizontal=0;startSize=0;swimlaneHead=0;swimlaneBody=0;strokeColor=inherit;top=0;left=0;bottom=0;right=0;collapsible=0;dropTarget=0;fillColor=none;points=[[0,0.5],[1,0.5]];portConstraint=eastwest;" parent="gLA9Vmcd5SNokh0GjbCU-14" vertex="1">
          <mxGeometry y="223" width="140" height="49" as="geometry" />
        </mxCell>
        <mxCell id="gLA9Vmcd5SNokh0GjbCU-24" value="Email_Membre" style="shape=partialRectangle;html=1;whiteSpace=wrap;connectable=0;strokeColor=inherit;overflow=hidden;fillColor=none;top=0;left=0;bottom=0;right=0;pointerEvents=1;" parent="gLA9Vmcd5SNokh0GjbCU-23" vertex="1">
          <mxGeometry width="140" height="49" as="geometry">
            <mxRectangle width="140" height="49" as="alternateBounds" />
          </mxGeometry>
        </mxCell>
        <mxCell id="gLA9Vmcd5SNokh0GjbCU-25" style="shape=tableRow;horizontal=0;startSize=0;swimlaneHead=0;swimlaneBody=0;strokeColor=inherit;top=0;left=0;bottom=0;right=0;collapsible=0;dropTarget=0;fillColor=none;points=[[0,0.5],[1,0.5]];portConstraint=eastwest;" parent="gLA9Vmcd5SNokh0GjbCU-14" vertex="1">
          <mxGeometry y="272" width="140" height="48" as="geometry" />
        </mxCell>
        <mxCell id="gLA9Vmcd5SNokh0GjbCU-26" value="Date_Inscription" style="shape=partialRectangle;html=1;whiteSpace=wrap;connectable=0;strokeColor=inherit;overflow=hidden;fillColor=none;top=0;left=0;bottom=0;right=0;pointerEvents=1;" parent="gLA9Vmcd5SNokh0GjbCU-25" vertex="1">
          <mxGeometry width="140" height="48" as="geometry">
            <mxRectangle width="140" height="48" as="alternateBounds" />
          </mxGeometry>
        </mxCell>
        <mxCell id="gLA9Vmcd5SNokh0GjbCU-27" value="EXEMPLAIRES" style="shape=table;startSize=30;container=1;collapsible=0;childLayout=tableLayout;" parent="1" vertex="1">
          <mxGeometry x="830" y="1678" width="140" height="262" as="geometry" />
        </mxCell>
        <mxCell id="gLA9Vmcd5SNokh0GjbCU-28" value="" style="shape=tableRow;horizontal=0;startSize=0;swimlaneHead=0;swimlaneBody=0;strokeColor=inherit;top=0;left=0;bottom=0;right=0;collapsible=0;dropTarget=0;fillColor=none;points=[[0,0.5],[1,0.5]];portConstraint=eastwest;" parent="gLA9Vmcd5SNokh0GjbCU-27" vertex="1">
          <mxGeometry y="30" width="140" height="58" as="geometry" />
        </mxCell>
        <mxCell id="gLA9Vmcd5SNokh0GjbCU-29" value="ID_Exemplaires [PK]" style="shape=partialRectangle;html=1;whiteSpace=wrap;connectable=0;strokeColor=inherit;overflow=hidden;fillColor=#67AB9F;top=0;left=0;bottom=0;right=0;pointerEvents=1;" parent="gLA9Vmcd5SNokh0GjbCU-28" vertex="1">
          <mxGeometry width="140" height="58" as="geometry">
            <mxRectangle width="140" height="58" as="alternateBounds" />
          </mxGeometry>
        </mxCell>
        <mxCell id="gLA9Vmcd5SNokh0GjbCU-32" value="" style="shape=tableRow;horizontal=0;startSize=0;swimlaneHead=0;swimlaneBody=0;strokeColor=inherit;top=0;left=0;bottom=0;right=0;collapsible=0;dropTarget=0;fillColor=none;points=[[0,0.5],[1,0.5]];portConstraint=eastwest;" parent="gLA9Vmcd5SNokh0GjbCU-27" vertex="1">
          <mxGeometry y="88" width="140" height="58" as="geometry" />
        </mxCell>
        <mxCell id="gLA9Vmcd5SNokh0GjbCU-33" value="Etat" style="shape=partialRectangle;html=1;whiteSpace=wrap;connectable=0;strokeColor=inherit;overflow=hidden;fillColor=none;top=0;left=0;bottom=0;right=0;pointerEvents=1;" parent="gLA9Vmcd5SNokh0GjbCU-32" vertex="1">
          <mxGeometry width="140" height="58" as="geometry">
            <mxRectangle width="140" height="58" as="alternateBounds" />
          </mxGeometry>
        </mxCell>
        <mxCell id="gLA9Vmcd5SNokh0GjbCU-34" value="" style="shape=tableRow;horizontal=0;startSize=0;swimlaneHead=0;swimlaneBody=0;strokeColor=inherit;top=0;left=0;bottom=0;right=0;collapsible=0;dropTarget=0;fillColor=none;points=[[0,0.5],[1,0.5]];portConstraint=eastwest;" parent="gLA9Vmcd5SNokh0GjbCU-27" vertex="1">
          <mxGeometry y="146" width="140" height="57" as="geometry" />
        </mxCell>
        <mxCell id="gLA9Vmcd5SNokh0GjbCU-35" value="Disponibilité" style="shape=partialRectangle;html=1;whiteSpace=wrap;connectable=0;strokeColor=inherit;overflow=hidden;fillColor=none;top=0;left=0;bottom=0;right=0;pointerEvents=1;" parent="gLA9Vmcd5SNokh0GjbCU-34" vertex="1">
          <mxGeometry width="140" height="57" as="geometry">
            <mxRectangle width="140" height="57" as="alternateBounds" />
          </mxGeometry>
        </mxCell>
        <mxCell id="gLA9Vmcd5SNokh0GjbCU-36" value="" style="shape=tableRow;horizontal=0;startSize=0;swimlaneHead=0;swimlaneBody=0;strokeColor=inherit;top=0;left=0;bottom=0;right=0;collapsible=0;dropTarget=0;fillColor=none;points=[[0,0.5],[1,0.5]];portConstraint=eastwest;" parent="gLA9Vmcd5SNokh0GjbCU-27" vertex="1">
          <mxGeometry y="203" width="140" height="59" as="geometry" />
        </mxCell>
        <mxCell id="gLA9Vmcd5SNokh0GjbCU-37" value="Date d&#39;achat" style="shape=partialRectangle;html=1;whiteSpace=wrap;connectable=0;strokeColor=inherit;overflow=hidden;fillColor=none;top=0;left=0;bottom=0;right=0;pointerEvents=1;" parent="gLA9Vmcd5SNokh0GjbCU-36" vertex="1">
          <mxGeometry width="140" height="59" as="geometry">
            <mxRectangle width="140" height="59" as="alternateBounds" />
          </mxGeometry>
        </mxCell>
        <mxCell id="gLA9Vmcd5SNokh0GjbCU-38" value="AUTEUR" style="shape=table;startSize=30;container=1;collapsible=0;childLayout=tableLayout;" parent="1" vertex="1">
          <mxGeometry x="530" y="960" width="120" height="320" as="geometry" />
        </mxCell>
        <mxCell id="gLA9Vmcd5SNokh0GjbCU-39" value="" style="shape=tableRow;horizontal=0;startSize=0;swimlaneHead=0;swimlaneBody=0;strokeColor=inherit;top=0;left=0;bottom=0;right=0;collapsible=0;dropTarget=0;fillColor=none;points=[[0,0.5],[1,0.5]];portConstraint=eastwest;" parent="gLA9Vmcd5SNokh0GjbCU-38" vertex="1">
          <mxGeometry y="30" width="120" height="73" as="geometry" />
        </mxCell>
        <mxCell id="gLA9Vmcd5SNokh0GjbCU-40" value="Id_Auteur [PK]" style="shape=partialRectangle;html=1;whiteSpace=wrap;connectable=0;strokeColor=inherit;overflow=hidden;fillColor=#FF0000;top=0;left=0;bottom=0;right=0;pointerEvents=1;" parent="gLA9Vmcd5SNokh0GjbCU-39" vertex="1">
          <mxGeometry width="120" height="73" as="geometry">
            <mxRectangle width="120" height="73" as="alternateBounds" />
          </mxGeometry>
        </mxCell>
        <mxCell id="gLA9Vmcd5SNokh0GjbCU-41" value="" style="shape=tableRow;horizontal=0;startSize=0;swimlaneHead=0;swimlaneBody=0;strokeColor=inherit;top=0;left=0;bottom=0;right=0;collapsible=0;dropTarget=0;fillColor=none;points=[[0,0.5],[1,0.5]];portConstraint=eastwest;" parent="gLA9Vmcd5SNokh0GjbCU-38" vertex="1">
          <mxGeometry y="103" width="120" height="72" as="geometry" />
        </mxCell>
        <mxCell id="gLA9Vmcd5SNokh0GjbCU-42" value="Nom_Auteur" style="shape=partialRectangle;html=1;whiteSpace=wrap;connectable=0;strokeColor=inherit;overflow=hidden;fillColor=none;top=0;left=0;bottom=0;right=0;pointerEvents=1;" parent="gLA9Vmcd5SNokh0GjbCU-41" vertex="1">
          <mxGeometry width="120" height="72" as="geometry">
            <mxRectangle width="120" height="72" as="alternateBounds" />
          </mxGeometry>
        </mxCell>
        <mxCell id="gLA9Vmcd5SNokh0GjbCU-43" value="" style="shape=tableRow;horizontal=0;startSize=0;swimlaneHead=0;swimlaneBody=0;strokeColor=inherit;top=0;left=0;bottom=0;right=0;collapsible=0;dropTarget=0;fillColor=none;points=[[0,0.5],[1,0.5]];portConstraint=eastwest;" parent="gLA9Vmcd5SNokh0GjbCU-38" vertex="1">
          <mxGeometry y="175" width="120" height="73" as="geometry" />
        </mxCell>
        <mxCell id="gLA9Vmcd5SNokh0GjbCU-44" value="Prénom_Auteur" style="shape=partialRectangle;html=1;whiteSpace=wrap;connectable=0;strokeColor=inherit;overflow=hidden;fillColor=none;top=0;left=0;bottom=0;right=0;pointerEvents=1;" parent="gLA9Vmcd5SNokh0GjbCU-43" vertex="1">
          <mxGeometry width="120" height="73" as="geometry">
            <mxRectangle width="120" height="73" as="alternateBounds" />
          </mxGeometry>
        </mxCell>
        <mxCell id="gLA9Vmcd5SNokh0GjbCU-47" value="" style="shape=tableRow;horizontal=0;startSize=0;swimlaneHead=0;swimlaneBody=0;strokeColor=inherit;top=0;left=0;bottom=0;right=0;collapsible=0;dropTarget=0;fillColor=none;points=[[0,0.5],[1,0.5]];portConstraint=eastwest;" parent="gLA9Vmcd5SNokh0GjbCU-38" vertex="1">
          <mxGeometry y="248" width="120" height="72" as="geometry" />
        </mxCell>
        <mxCell id="gLA9Vmcd5SNokh0GjbCU-48" value="Date_Naissance" style="shape=partialRectangle;html=1;whiteSpace=wrap;connectable=0;strokeColor=inherit;overflow=hidden;fillColor=none;top=0;left=0;bottom=0;right=0;pointerEvents=1;" parent="gLA9Vmcd5SNokh0GjbCU-47" vertex="1">
          <mxGeometry width="120" height="72" as="geometry">
            <mxRectangle width="120" height="72" as="alternateBounds" />
          </mxGeometry>
        </mxCell>
        <mxCell id="gLA9Vmcd5SNokh0GjbCU-49" value="CATEGORIES" style="shape=table;startSize=30;container=1;collapsible=0;childLayout=tableLayout;" parent="1" vertex="1">
          <mxGeometry x="240" y="1940" width="130" height="320" as="geometry" />
        </mxCell>
        <mxCell id="gLA9Vmcd5SNokh0GjbCU-50" value="" style="shape=tableRow;horizontal=0;startSize=0;swimlaneHead=0;swimlaneBody=0;strokeColor=inherit;top=0;left=0;bottom=0;right=0;collapsible=0;dropTarget=0;fillColor=none;points=[[0,0.5],[1,0.5]];portConstraint=eastwest;" parent="gLA9Vmcd5SNokh0GjbCU-49" vertex="1">
          <mxGeometry y="30" width="130" height="95" as="geometry" />
        </mxCell>
        <mxCell id="gLA9Vmcd5SNokh0GjbCU-51" value="Categories_ID [PK]" style="shape=partialRectangle;html=1;whiteSpace=wrap;connectable=0;strokeColor=inherit;overflow=hidden;fillColor=#FFD966;top=0;left=0;bottom=0;right=0;pointerEvents=1;fillStyle=auto;" parent="gLA9Vmcd5SNokh0GjbCU-50" vertex="1">
          <mxGeometry width="130" height="95" as="geometry">
            <mxRectangle width="130" height="95" as="alternateBounds" />
          </mxGeometry>
        </mxCell>
        <mxCell id="gLA9Vmcd5SNokh0GjbCU-52" value="" style="shape=tableRow;horizontal=0;startSize=0;swimlaneHead=0;swimlaneBody=0;strokeColor=inherit;top=0;left=0;bottom=0;right=0;collapsible=0;dropTarget=0;fillColor=none;points=[[0,0.5],[1,0.5]];portConstraint=eastwest;" parent="gLA9Vmcd5SNokh0GjbCU-49" vertex="1">
          <mxGeometry y="125" width="130" height="98" as="geometry" />
        </mxCell>
        <mxCell id="gLA9Vmcd5SNokh0GjbCU-53" value="Nom_genre" style="shape=partialRectangle;html=1;whiteSpace=wrap;connectable=0;strokeColor=inherit;overflow=hidden;fillColor=none;top=0;left=0;bottom=0;right=0;pointerEvents=1;" parent="gLA9Vmcd5SNokh0GjbCU-52" vertex="1">
          <mxGeometry width="130" height="98" as="geometry">
            <mxRectangle width="130" height="98" as="alternateBounds" />
          </mxGeometry>
        </mxCell>
        <mxCell id="gLA9Vmcd5SNokh0GjbCU-54" value="" style="shape=tableRow;horizontal=0;startSize=0;swimlaneHead=0;swimlaneBody=0;strokeColor=inherit;top=0;left=0;bottom=0;right=0;collapsible=0;dropTarget=0;fillColor=none;points=[[0,0.5],[1,0.5]];portConstraint=eastwest;" parent="gLA9Vmcd5SNokh0GjbCU-49" vertex="1">
          <mxGeometry y="223" width="130" height="97" as="geometry" />
        </mxCell>
        <mxCell id="gLA9Vmcd5SNokh0GjbCU-55" value="Description" style="shape=partialRectangle;html=1;whiteSpace=wrap;connectable=0;strokeColor=inherit;overflow=hidden;fillColor=none;top=0;left=0;bottom=0;right=0;pointerEvents=1;" parent="gLA9Vmcd5SNokh0GjbCU-54" vertex="1">
          <mxGeometry width="130" height="97" as="geometry">
            <mxRectangle width="130" height="97" as="alternateBounds" />
          </mxGeometry>
        </mxCell>
        <mxCell id="gLA9Vmcd5SNokh0GjbCU-57" value="EMPRUNT" style="shape=table;startSize=30;container=1;collapsible=0;childLayout=tableLayout;" parent="1" vertex="1">
          <mxGeometry x="1090" y="1380" width="140" height="304" as="geometry" />
        </mxCell>
        <mxCell id="gLA9Vmcd5SNokh0GjbCU-58" value="" style="shape=tableRow;horizontal=0;startSize=0;swimlaneHead=0;swimlaneBody=0;strokeColor=#C73500;top=0;left=0;bottom=0;right=0;collapsible=0;dropTarget=0;fillColor=#FFB570;points=[[0,0.5],[1,0.5]];portConstraint=eastwest;fontColor=#000000;" parent="gLA9Vmcd5SNokh0GjbCU-57" vertex="1">
          <mxGeometry y="30" width="140" height="55" as="geometry" />
        </mxCell>
        <mxCell id="gLA9Vmcd5SNokh0GjbCU-59" value="Id_Emprunt [PK]" style="shape=partialRectangle;html=1;whiteSpace=wrap;connectable=0;strokeColor=#C73500;overflow=hidden;fillColor=#fa6800;top=0;left=0;bottom=0;right=0;pointerEvents=1;fontColor=#000000;" parent="gLA9Vmcd5SNokh0GjbCU-58" vertex="1">
          <mxGeometry width="140" height="55" as="geometry">
            <mxRectangle width="140" height="55" as="alternateBounds" />
          </mxGeometry>
        </mxCell>
        <mxCell id="gLA9Vmcd5SNokh0GjbCU-60" style="shape=tableRow;horizontal=0;startSize=0;swimlaneHead=0;swimlaneBody=0;strokeColor=inherit;top=0;left=0;bottom=0;right=0;collapsible=0;dropTarget=0;fillColor=none;points=[[0,0.5],[1,0.5]];portConstraint=eastwest;" parent="gLA9Vmcd5SNokh0GjbCU-57" vertex="1">
          <mxGeometry y="85" width="140" height="55" as="geometry" />
        </mxCell>
        <mxCell id="gLA9Vmcd5SNokh0GjbCU-61" value="&lt;font style=&quot;color: rgb(51, 51, 255);&quot;&gt;Id_Exemplaire [FK]&lt;/font&gt;" style="shape=partialRectangle;html=1;whiteSpace=wrap;connectable=0;strokeColor=inherit;overflow=hidden;fillColor=none;top=0;left=0;bottom=0;right=0;pointerEvents=1;" parent="gLA9Vmcd5SNokh0GjbCU-60" vertex="1">
          <mxGeometry width="140" height="55" as="geometry">
            <mxRectangle width="140" height="55" as="alternateBounds" />
          </mxGeometry>
        </mxCell>
        <mxCell id="gLA9Vmcd5SNokh0GjbCU-62" style="shape=tableRow;horizontal=0;startSize=0;swimlaneHead=0;swimlaneBody=0;strokeColor=inherit;top=0;left=0;bottom=0;right=0;collapsible=0;dropTarget=0;fillColor=none;points=[[0,0.5],[1,0.5]];portConstraint=eastwest;" parent="gLA9Vmcd5SNokh0GjbCU-57" vertex="1">
          <mxGeometry y="140" width="140" height="54" as="geometry" />
        </mxCell>
        <mxCell id="gLA9Vmcd5SNokh0GjbCU-63" value="Date_Emprunt" style="shape=partialRectangle;html=1;whiteSpace=wrap;connectable=0;strokeColor=inherit;overflow=hidden;fillColor=none;top=0;left=0;bottom=0;right=0;pointerEvents=1;" parent="gLA9Vmcd5SNokh0GjbCU-62" vertex="1">
          <mxGeometry width="140" height="54" as="geometry">
            <mxRectangle width="140" height="54" as="alternateBounds" />
          </mxGeometry>
        </mxCell>
        <mxCell id="gLA9Vmcd5SNokh0GjbCU-64" value="" style="shape=tableRow;horizontal=0;startSize=0;swimlaneHead=0;swimlaneBody=0;strokeColor=inherit;top=0;left=0;bottom=0;right=0;collapsible=0;dropTarget=0;fillColor=none;points=[[0,0.5],[1,0.5]];portConstraint=eastwest;" parent="gLA9Vmcd5SNokh0GjbCU-57" vertex="1">
          <mxGeometry y="194" width="140" height="55" as="geometry" />
        </mxCell>
        <mxCell id="gLA9Vmcd5SNokh0GjbCU-65" value="Date_Retour_Prévue" style="shape=partialRectangle;html=1;whiteSpace=wrap;connectable=0;strokeColor=inherit;overflow=hidden;fillColor=none;top=0;left=0;bottom=0;right=0;pointerEvents=1;" parent="gLA9Vmcd5SNokh0GjbCU-64" vertex="1">
          <mxGeometry width="140" height="55" as="geometry">
            <mxRectangle width="140" height="55" as="alternateBounds" />
          </mxGeometry>
        </mxCell>
        <mxCell id="gLA9Vmcd5SNokh0GjbCU-66" value="" style="shape=tableRow;horizontal=0;startSize=0;swimlaneHead=0;swimlaneBody=0;strokeColor=inherit;top=0;left=0;bottom=0;right=0;collapsible=0;dropTarget=0;fillColor=none;points=[[0,0.5],[1,0.5]];portConstraint=eastwest;" parent="gLA9Vmcd5SNokh0GjbCU-57" vertex="1">
          <mxGeometry y="249" width="140" height="55" as="geometry" />
        </mxCell>
        <mxCell id="gLA9Vmcd5SNokh0GjbCU-67" value="Date_Retour_Effective" style="shape=partialRectangle;html=1;whiteSpace=wrap;connectable=0;strokeColor=inherit;overflow=hidden;fillColor=none;top=0;left=0;bottom=0;right=0;pointerEvents=1;" parent="gLA9Vmcd5SNokh0GjbCU-66" vertex="1">
          <mxGeometry width="140" height="55" as="geometry">
            <mxRectangle width="140" height="55" as="alternateBounds" />
          </mxGeometry>
        </mxCell>
        <mxCell id="gLA9Vmcd5SNokh0GjbCU-68" value="&lt;b&gt;PHASE 1&lt;/b&gt;" style="text;html=1;align=center;verticalAlign=middle;whiteSpace=wrap;rounded=0;fontSize=30;" parent="1" vertex="1">
          <mxGeometry x="625" y="880" width="190" height="30" as="geometry" />
        </mxCell>
        <mxCell id="gLA9Vmcd5SNokh0GjbCU-69" value="PAYS" style="shape=table;startSize=30;container=1;collapsible=0;childLayout=tableLayout;" parent="1" vertex="1">
          <mxGeometry x="560" y="1495" width="60" height="110" as="geometry" />
        </mxCell>
        <mxCell id="gLA9Vmcd5SNokh0GjbCU-70" style="shape=tableRow;horizontal=0;startSize=0;swimlaneHead=0;swimlaneBody=0;strokeColor=inherit;top=0;left=0;bottom=0;right=0;collapsible=0;dropTarget=0;fillColor=none;points=[[0,0.5],[1,0.5]];portConstraint=eastwest;" parent="gLA9Vmcd5SNokh0GjbCU-69" vertex="1">
          <mxGeometry y="30" width="60" height="40" as="geometry" />
        </mxCell>
        <mxCell id="gLA9Vmcd5SNokh0GjbCU-71" style="shape=partialRectangle;html=1;whiteSpace=wrap;connectable=0;strokeColor=inherit;overflow=hidden;fillColor=none;top=0;left=0;bottom=0;right=0;pointerEvents=1;" parent="gLA9Vmcd5SNokh0GjbCU-70" vertex="1">
          <mxGeometry width="60" height="40" as="geometry">
            <mxRectangle width="60" height="40" as="alternateBounds" />
          </mxGeometry>
        </mxCell>
        <mxCell id="gLA9Vmcd5SNokh0GjbCU-72" value="" style="shape=tableRow;horizontal=0;startSize=0;swimlaneHead=0;swimlaneBody=0;strokeColor=inherit;top=0;left=0;bottom=0;right=0;collapsible=0;dropTarget=0;fillColor=none;points=[[0,0.5],[1,0.5]];portConstraint=eastwest;" parent="gLA9Vmcd5SNokh0GjbCU-69" vertex="1">
          <mxGeometry y="70" width="60" height="40" as="geometry" />
        </mxCell>
        <mxCell id="gLA9Vmcd5SNokh0GjbCU-73" value="nom_p" style="shape=partialRectangle;html=1;whiteSpace=wrap;connectable=0;strokeColor=inherit;overflow=hidden;fillColor=none;top=0;left=0;bottom=0;right=0;pointerEvents=1;" parent="gLA9Vmcd5SNokh0GjbCU-72" vertex="1">
          <mxGeometry width="60" height="40" as="geometry">
            <mxRectangle width="60" height="40" as="alternateBounds" />
          </mxGeometry>
        </mxCell>
        <mxCell id="gLA9Vmcd5SNokh0GjbCU-74" value="" style="shape=tableRow;horizontal=0;startSize=0;swimlaneHead=0;swimlaneBody=0;strokeColor=inherit;top=0;left=0;bottom=0;right=0;collapsible=0;dropTarget=0;fillColor=none;points=[[0,0.5],[1,0.5]];portConstraint=eastwest;" parent="1" vertex="1">
          <mxGeometry x="560" y="1390" width="60" height="40" as="geometry" />
        </mxCell>
        <mxCell id="gLA9Vmcd5SNokh0GjbCU-75" style="edgeStyle=orthogonalEdgeStyle;rounded=0;orthogonalLoop=1;jettySize=auto;html=1;" parent="1" source="gLA9Vmcd5SNokh0GjbCU-76" edge="1">
          <mxGeometry relative="1" as="geometry">
            <mxPoint x="590" y="1400" as="targetPoint" />
            <Array as="points">
              <mxPoint x="590" y="1390" />
              <mxPoint x="590" y="1390" />
            </Array>
          </mxGeometry>
        </mxCell>
        <mxCell id="gLA9Vmcd5SNokh0GjbCU-76" value="( 1,1 )" style="text;html=1;align=center;verticalAlign=middle;resizable=0;points=[];autosize=1;strokeColor=none;fillColor=none;fontSize=12;fontStyle=0" parent="1" vertex="1">
          <mxGeometry x="565" y="1348" width="50" height="30" as="geometry" />
        </mxCell>
        <mxCell id="gLA9Vmcd5SNokh0GjbCU-77" style="edgeStyle=orthogonalEdgeStyle;rounded=0;orthogonalLoop=1;jettySize=auto;html=1;entryX=0;entryY=0.5;entryDx=0;entryDy=0;exitX=1;exitY=0.5;exitDx=0;exitDy=0;" parent="1" source="gLA9Vmcd5SNokh0GjbCU-10" target="gLA9Vmcd5SNokh0GjbCU-82" edge="1">
          <mxGeometry relative="1" as="geometry">
            <mxPoint x="344" y="1763" as="sourcePoint" />
          </mxGeometry>
        </mxCell>
        <mxCell id="gLA9Vmcd5SNokh0GjbCU-78" value="Id_Pays" style="shape=partialRectangle;html=1;whiteSpace=wrap;connectable=0;strokeColor=inherit;overflow=hidden;fillColor=none;top=0;left=0;bottom=0;right=0;pointerEvents=1;" parent="1" vertex="1">
          <mxGeometry x="560" y="1524" width="60" height="40" as="geometry">
            <mxRectangle width="60" height="40" as="alternateBounds" />
          </mxGeometry>
        </mxCell>
        <mxCell id="gLA9Vmcd5SNokh0GjbCU-79" value="Originaire de&lt;div&gt;(1,N)&lt;/div&gt;" style="ellipse;whiteSpace=wrap;html=1;align=center;" parent="1" vertex="1">
          <mxGeometry x="540" y="1405" width="100" height="40" as="geometry" />
        </mxCell>
        <mxCell id="gLA9Vmcd5SNokh0GjbCU-80" style="edgeStyle=orthogonalEdgeStyle;rounded=0;orthogonalLoop=1;jettySize=auto;html=1;" parent="1" source="gLA9Vmcd5SNokh0GjbCU-81" target="gLA9Vmcd5SNokh0GjbCU-69" edge="1">
          <mxGeometry relative="1" as="geometry" />
        </mxCell>
        <mxCell id="gLA9Vmcd5SNokh0GjbCU-81" value="( 0, N )" style="text;html=1;align=center;verticalAlign=middle;resizable=0;points=[];autosize=1;strokeColor=none;fillColor=none;fontSize=12;fontStyle=0" parent="1" vertex="1">
          <mxGeometry x="560" y="1441" width="60" height="30" as="geometry" />
        </mxCell>
        <mxCell id="gLA9Vmcd5SNokh0GjbCU-82" value="POSSEDE&lt;div&gt;( 1, N )&lt;/div&gt;" style="ellipse;whiteSpace=wrap;html=1;align=center;fillColor=#647687;fontColor=#ffffff;strokeColor=#314354;" parent="1" vertex="1">
          <mxGeometry x="685" y="1816.5" width="70" height="53" as="geometry" />
        </mxCell>
        <mxCell id="gLA9Vmcd5SNokh0GjbCU-83" value="( 1, 1 )" style="text;html=1;align=center;verticalAlign=middle;resizable=0;points=[];autosize=1;strokeColor=none;fillColor=none;" parent="1" vertex="1">
          <mxGeometry x="780" y="1828" width="60" height="30" as="geometry" />
        </mxCell>
        <mxCell id="gLA9Vmcd5SNokh0GjbCU-84" style="edgeStyle=orthogonalEdgeStyle;rounded=0;orthogonalLoop=1;jettySize=auto;html=1;entryX=0.031;entryY=0.505;entryDx=0;entryDy=0;entryPerimeter=0;" parent="1" source="gLA9Vmcd5SNokh0GjbCU-82" target="gLA9Vmcd5SNokh0GjbCU-83" edge="1">
          <mxGeometry relative="1" as="geometry" />
        </mxCell>
        <mxCell id="gLA9Vmcd5SNokh0GjbCU-85" style="edgeStyle=orthogonalEdgeStyle;rounded=0;orthogonalLoop=1;jettySize=auto;html=1;" parent="1" source="gLA9Vmcd5SNokh0GjbCU-86" edge="1">
          <mxGeometry relative="1" as="geometry">
            <mxPoint x="1160" y="1710" as="targetPoint" />
          </mxGeometry>
        </mxCell>
        <mxCell id="gLA9Vmcd5SNokh0GjbCU-86" value="CONCERNE&lt;div&gt;( 1, N )&amp;nbsp;&lt;/div&gt;" style="ellipse;whiteSpace=wrap;html=1;align=center;fillColor=#647687;fontColor=#ffffff;strokeColor=#314354;" parent="1" vertex="1">
          <mxGeometry x="1110" y="1830" width="100" height="40" as="geometry" />
        </mxCell>
        <mxCell id="gLA9Vmcd5SNokh0GjbCU-87" value="( 0, 1 )" style="text;html=1;align=center;verticalAlign=middle;resizable=0;points=[];autosize=1;strokeColor=none;fillColor=none;" parent="1" vertex="1">
          <mxGeometry x="970" y="1838" width="60" height="30" as="geometry" />
        </mxCell>
        <mxCell id="gLA9Vmcd5SNokh0GjbCU-88" style="edgeStyle=orthogonalEdgeStyle;rounded=0;orthogonalLoop=1;jettySize=auto;html=1;entryX=0.039;entryY=0.586;entryDx=0;entryDy=0;entryPerimeter=0;" parent="1" edge="1">
          <mxGeometry relative="1" as="geometry">
            <mxPoint x="1026" y="1853.0285714285715" as="sourcePoint" />
            <mxPoint x="1109.8999999999999" y="1853.44" as="targetPoint" />
          </mxGeometry>
        </mxCell>
        <mxCell id="gLA9Vmcd5SNokh0GjbCU-89" value="( 0, N)" style="text;html=1;align=center;verticalAlign=middle;resizable=0;points=[];autosize=1;strokeColor=none;fillColor=none;" parent="1" vertex="1">
          <mxGeometry x="1129" y="1682" width="60" height="30" as="geometry" />
        </mxCell>
        <mxCell id="gLA9Vmcd5SNokh0GjbCU-110" style="edgeStyle=orthogonalEdgeStyle;rounded=0;orthogonalLoop=1;jettySize=auto;html=1;entryX=0.5;entryY=0;entryDx=0;entryDy=0;" parent="1" source="gLA9Vmcd5SNokh0GjbCU-90" target="gLA9Vmcd5SNokh0GjbCU-1" edge="1">
          <mxGeometry relative="1" as="geometry" />
        </mxCell>
        <mxCell id="gLA9Vmcd5SNokh0GjbCU-90" value="AUTEUR_LIVRE" style="shape=table;startSize=30;container=1;collapsible=0;childLayout=tableLayout;" parent="1" vertex="1">
          <mxGeometry x="290" y="1030" width="120" height="160" as="geometry" />
        </mxCell>
        <mxCell id="gLA9Vmcd5SNokh0GjbCU-91" value="" style="shape=tableRow;horizontal=0;startSize=0;swimlaneHead=0;swimlaneBody=0;strokeColor=inherit;top=0;left=0;bottom=0;right=0;collapsible=0;dropTarget=0;fillColor=none;points=[[0,0.5],[1,0.5]];portConstraint=eastwest;" parent="gLA9Vmcd5SNokh0GjbCU-90" vertex="1">
          <mxGeometry y="30" width="120" height="65" as="geometry" />
        </mxCell>
        <mxCell id="gLA9Vmcd5SNokh0GjbCU-92" value="&lt;font style=&quot;color: rgb(51, 51, 255);&quot;&gt;Id_Auteur [PK], [FK]&lt;/font&gt;" style="shape=partialRectangle;html=1;whiteSpace=wrap;connectable=0;strokeColor=inherit;overflow=hidden;fillColor=none;top=0;left=0;bottom=0;right=0;pointerEvents=1;" parent="gLA9Vmcd5SNokh0GjbCU-91" vertex="1">
          <mxGeometry width="120" height="65" as="geometry">
            <mxRectangle width="120" height="65" as="alternateBounds" />
          </mxGeometry>
        </mxCell>
        <mxCell id="gLA9Vmcd5SNokh0GjbCU-93" value="" style="shape=tableRow;horizontal=0;startSize=0;swimlaneHead=0;swimlaneBody=0;strokeColor=inherit;top=0;left=0;bottom=0;right=0;collapsible=0;dropTarget=0;fillColor=none;points=[[0,0.5],[1,0.5]];portConstraint=eastwest;" parent="gLA9Vmcd5SNokh0GjbCU-90" vertex="1">
          <mxGeometry y="95" width="120" height="65" as="geometry" />
        </mxCell>
        <mxCell id="gLA9Vmcd5SNokh0GjbCU-94" value="&lt;font style=&quot;color: rgb(51, 51, 255);&quot;&gt;Id_Livre [PK], [FK]&lt;/font&gt;" style="shape=partialRectangle;html=1;whiteSpace=wrap;connectable=0;strokeColor=inherit;overflow=hidden;fillColor=none;top=0;left=0;bottom=0;right=0;pointerEvents=1;" parent="gLA9Vmcd5SNokh0GjbCU-93" vertex="1">
          <mxGeometry width="120" height="65" as="geometry">
            <mxRectangle width="120" height="65" as="alternateBounds" />
          </mxGeometry>
        </mxCell>
        <mxCell id="qTmTfKEGdse1aKPOjGWy-1" style="edgeStyle=orthogonalEdgeStyle;rounded=0;orthogonalLoop=1;jettySize=auto;html=1;entryX=0.5;entryY=0;entryDx=0;entryDy=0;" edge="1" parent="1" source="gLA9Vmcd5SNokh0GjbCU-95" target="gLA9Vmcd5SNokh0GjbCU-57">
          <mxGeometry relative="1" as="geometry" />
        </mxCell>
        <mxCell id="gLA9Vmcd5SNokh0GjbCU-95" value="MEMBRE_EMPRUNT" style="shape=table;startSize=30;container=1;collapsible=0;childLayout=tableLayout;" parent="1" vertex="1">
          <mxGeometry x="1100" y="1076.5" width="120" height="160" as="geometry" />
        </mxCell>
        <mxCell id="gLA9Vmcd5SNokh0GjbCU-96" value="" style="shape=tableRow;horizontal=0;startSize=0;swimlaneHead=0;swimlaneBody=0;strokeColor=inherit;top=0;left=0;bottom=0;right=0;collapsible=0;dropTarget=0;fillColor=none;points=[[0,0.5],[1,0.5]];portConstraint=eastwest;" parent="gLA9Vmcd5SNokh0GjbCU-95" vertex="1">
          <mxGeometry y="30" width="120" height="65" as="geometry" />
        </mxCell>
        <mxCell id="gLA9Vmcd5SNokh0GjbCU-97" value="&lt;font style=&quot;color: rgb(51, 51, 255);&quot;&gt;id_Membre&amp;nbsp;&lt;/font&gt;&lt;div&gt;&lt;font style=&quot;color: rgb(51, 51, 255);&quot;&gt;[PK], [FK]&lt;/font&gt;&lt;/div&gt;" style="shape=partialRectangle;html=1;whiteSpace=wrap;connectable=0;strokeColor=inherit;overflow=hidden;fillColor=none;top=0;left=0;bottom=0;right=0;pointerEvents=1;" parent="gLA9Vmcd5SNokh0GjbCU-96" vertex="1">
          <mxGeometry width="120" height="65" as="geometry">
            <mxRectangle width="120" height="65" as="alternateBounds" />
          </mxGeometry>
        </mxCell>
        <mxCell id="gLA9Vmcd5SNokh0GjbCU-98" value="" style="shape=tableRow;horizontal=0;startSize=0;swimlaneHead=0;swimlaneBody=0;strokeColor=inherit;top=0;left=0;bottom=0;right=0;collapsible=0;dropTarget=0;fillColor=none;points=[[0,0.5],[1,0.5]];portConstraint=eastwest;" parent="gLA9Vmcd5SNokh0GjbCU-95" vertex="1">
          <mxGeometry y="95" width="120" height="65" as="geometry" />
        </mxCell>
        <mxCell id="gLA9Vmcd5SNokh0GjbCU-99" value="&lt;font style=&quot;color: rgb(51, 51, 255);&quot;&gt;id_Emprunt&amp;nbsp;&lt;/font&gt;&lt;div&gt;&lt;font style=&quot;color: rgb(51, 51, 255);&quot;&gt;[PK], [FK]&lt;/font&gt;&lt;/div&gt;" style="shape=partialRectangle;html=1;whiteSpace=wrap;connectable=0;strokeColor=inherit;overflow=hidden;fillColor=none;top=0;left=0;bottom=0;right=0;pointerEvents=1;" parent="gLA9Vmcd5SNokh0GjbCU-98" vertex="1">
          <mxGeometry width="120" height="65" as="geometry">
            <mxRectangle width="120" height="65" as="alternateBounds" />
          </mxGeometry>
        </mxCell>
        <mxCell id="gLA9Vmcd5SNokh0GjbCU-100" style="edgeStyle=orthogonalEdgeStyle;rounded=0;orthogonalLoop=1;jettySize=auto;html=1;entryX=0.998;entryY=0.062;entryDx=0;entryDy=0;entryPerimeter=0;" parent="1" source="gLA9Vmcd5SNokh0GjbCU-96" target="gLA9Vmcd5SNokh0GjbCU-14" edge="1">
          <mxGeometry relative="1" as="geometry" />
        </mxCell>
        <mxCell id="gLA9Vmcd5SNokh0GjbCU-101" style="edgeStyle=orthogonalEdgeStyle;rounded=0;orthogonalLoop=1;jettySize=auto;html=1;entryX=0.5;entryY=0;entryDx=0;entryDy=0;" parent="1" source="gLA9Vmcd5SNokh0GjbCU-93" target="gLA9Vmcd5SNokh0GjbCU-38" edge="1">
          <mxGeometry relative="1" as="geometry" />
        </mxCell>
        <mxCell id="gLA9Vmcd5SNokh0GjbCU-103" style="edgeStyle=orthogonalEdgeStyle;rounded=0;orthogonalLoop=1;jettySize=auto;html=1;entryX=0;entryY=0.25;entryDx=0;entryDy=0;" parent="1" source="gLA9Vmcd5SNokh0GjbCU-105" target="gLA9Vmcd5SNokh0GjbCU-49" edge="1">
          <mxGeometry relative="1" as="geometry" />
        </mxCell>
        <mxCell id="gLA9Vmcd5SNokh0GjbCU-104" style="edgeStyle=orthogonalEdgeStyle;rounded=0;orthogonalLoop=1;jettySize=auto;html=1;" parent="1" source="gLA9Vmcd5SNokh0GjbCU-105" target="gLA9Vmcd5SNokh0GjbCU-8" edge="1">
          <mxGeometry relative="1" as="geometry" />
        </mxCell>
        <mxCell id="gLA9Vmcd5SNokh0GjbCU-105" value="LIVRE_CATEGORIE" style="shape=table;startSize=30;container=1;collapsible=0;childLayout=tableLayout;" parent="1" vertex="1">
          <mxGeometry x="40" y="1708" width="120" height="152" as="geometry" />
        </mxCell>
        <mxCell id="gLA9Vmcd5SNokh0GjbCU-106" value="" style="shape=tableRow;horizontal=0;startSize=0;swimlaneHead=0;swimlaneBody=0;strokeColor=inherit;top=0;left=0;bottom=0;right=0;collapsible=0;dropTarget=0;fillColor=none;points=[[0,0.5],[1,0.5]];portConstraint=eastwest;" parent="gLA9Vmcd5SNokh0GjbCU-105" vertex="1">
          <mxGeometry y="30" width="120" height="65" as="geometry" />
        </mxCell>
        <mxCell id="gLA9Vmcd5SNokh0GjbCU-107" value="&lt;font style=&quot;color: rgb(51, 51, 255);&quot;&gt;Categories_ID&amp;nbsp;&lt;/font&gt;&lt;div&gt;&lt;font style=&quot;color: rgb(51, 51, 255);&quot;&gt;[PK], [FK]&lt;/font&gt;&lt;/div&gt;" style="shape=partialRectangle;html=1;whiteSpace=wrap;connectable=0;strokeColor=inherit;overflow=hidden;fillColor=none;top=0;left=0;bottom=0;right=0;pointerEvents=1;" parent="gLA9Vmcd5SNokh0GjbCU-106" vertex="1">
          <mxGeometry width="120" height="65" as="geometry">
            <mxRectangle width="120" height="65" as="alternateBounds" />
          </mxGeometry>
        </mxCell>
        <mxCell id="gLA9Vmcd5SNokh0GjbCU-108" value="" style="shape=tableRow;horizontal=0;startSize=0;swimlaneHead=0;swimlaneBody=0;strokeColor=inherit;top=0;left=0;bottom=0;right=0;collapsible=0;dropTarget=0;fillColor=none;points=[[0,0.5],[1,0.5]];portConstraint=eastwest;" parent="gLA9Vmcd5SNokh0GjbCU-105" vertex="1">
          <mxGeometry y="95" width="120" height="57" as="geometry" />
        </mxCell>
        <mxCell id="gLA9Vmcd5SNokh0GjbCU-109" value="&lt;font style=&quot;color: rgb(51, 51, 255);&quot;&gt;Id_Livre [PK], [FK]&lt;/font&gt;" style="shape=partialRectangle;html=1;whiteSpace=wrap;connectable=0;strokeColor=inherit;overflow=hidden;fillColor=none;top=0;left=0;bottom=0;right=0;pointerEvents=1;" parent="gLA9Vmcd5SNokh0GjbCU-108" vertex="1">
          <mxGeometry width="120" height="57" as="geometry">
            <mxRectangle width="120" height="57" as="alternateBounds" />
          </mxGeometry>
        </mxCell>
      </root>
    </mxGraphModel>
  </diagram>
</mxfile>
